<svg xmlns="http://www.w3.org/2000/svg" xmlns:xlink="http://www.w3.org/1999/xlink">
  <defs>
    <!-- Navigation icons -->
    <symbol id="home" viewBox="0 -960 960 960">
      <path fill="currentColor" d="M240-200h120v-240h240v240h120v-360L480-740 240-560v360Zm-80 80v-480l320-240 320 240v480H520v-240h-80v240H160Zm320-350Z"/>
    </symbol>
    <symbol id="menu" viewBox="0 -960 960 960">
      <path fill="currentColor" d="M120-240v-80h720v80H120Zm0-200v-80h720v80H120Zm0-200v-80h720v80H120Z"/>
    </symbol>
    <symbol id="close" viewBox="0 -960 960 960">
      <path fill="currentColor" d="m256-200-56-56 224-224-224-224 56-56 224 224 224-224 56 56-224 224 224 224-56 56-224-224-224 224Z"/>
    </symbol>
    
    <!-- Status icons -->
    <symbol id="wifi" viewBox="0 -960 960 960">
      <path fill="currentColor" d="M480-120q-42 0-71-29t-29-71q0-42 29-71t71-29q42 0 71 29t29 71q0 42-29 71t-71 29ZM254-346l-84-86q59-59 138.5-93.5T480-560q92 0 171.5 35T790-430l-84 84q-44-44-102-69t-124-25q-66 0-124 25t-102 69ZM84-516 0-600q92-94 215-147t265-53q142 0 265 53t215 147l-84 84q-77-77-178.5-120.5T480-680q-116 0-217.5 43.5T84-516Z"/>
    </symbol>
    <symbol id="lock" viewBox="0 -960 960 960">
      <path fill="currentColor" d="M240-80q-33 0-56.5-23.5T160-160v-400q0-33 23.5-56.5T240-640h40v-80q0-83 58.5-141.5T480-920q83 0 141.5 58.5T680-720v80h40q33 0 56.5 23.5T800-560v400q0 33-23.5 56.5T720-80H240Zm240-200q33 0 56.5-23.5T560-360q0-33-23.5-56.5T480-440q-33 0-56.5 23.5T400-360q0 33 23.5 56.5T480-280ZM360-640h240v-80q0-50-35-85t-85-35q-50 0-85 35t-35 85v80Z"/>
    </symbol>
    <symbol id="info" viewBox="0 -960 960 960">
      <path fill="currentColor" d="M440-280h80v-240h-80v240Zm40-320q17 0 28.5-11.5T520-640q0-17-11.5-28.5T480-680q-17 0-28.5 11.5T440-640q0 17 11.5 28.5T480-600Zm0 520q-83 0-156-31.5T197-197q-54-54-85.5-127T80-480q0-83 31.5-156T197-763q54-54 127-85.5T480-880q83 0 156 31.5T763-763q54 54 85.5 127T880-480q0 83-31.5 156T763-197q-54 54-127 85.5T480-80Z"/>
    </symbol>
    <symbol id="memory" viewBox="0 -960 960 960">
      <path fill="currentColor" d="M360-360v-240h240v240H360Zm80-80h80v-80h-80v80Zm-80 320v-80h-80q-33 0-56.5-23.5T200-280v-80h-80v-80h80v-80h-80v-80h80v-80q0-33 23.5-56.5T280-760h80v-80h80v80h80v-80h80v80h80q33 0 56.5 23.5T760-680v80h80v80h-80v80h80v80h-80v80q0 33-23.5 56.5T680-200h-80v80h-80v-80h-80v80h-80Zm320-160v-320H280v320h400Z"/>
    </symbol>
    
    <!-- Action icons -->
    <symbol id="refresh" viewBox="0 -960 960 960">
      <path fill="currentColor" d="M480-160q-134 0-227-93t-93-227q0-134 93-227t227-93q69 0 132 28.5T720-690v-110h80v280H520v-80h168q-32-56-87.5-88T480-720q-100 0-170 70t-70 170q0 100 70 170t170 70q77 0 139-44t87-116h84q-28 106-114 173t-196 67Z"/>
    </symbol>
  </defs>
</svg>
